<svg width="60" height="59" viewBox="0 0 60 59" fill="none" xmlns="http://www.w3.org/2000/svg">
<g id="ant-design:instagram-filled">
<path id="Vector" d="M29.7343 21.8202C25.4756 21.8202 22.0002 25.2714 22.0002 29.5005C22.0002 33.7296 25.4756 37.1809 29.7343 37.1809C33.993 37.1809 37.4684 33.7296 37.4684 29.5005C37.4684 25.2714 33.993 21.8202 29.7343 21.8202ZM52.9307 29.5005C52.9307 26.3201 52.9597 23.1684 52.7799 19.9937C52.6 16.3062 51.7529 13.0335 49.0376 10.3371C46.3164 7.63482 43.0267 6.79937 39.3134 6.62076C36.1107 6.44214 32.937 6.47095 29.7401 6.47095C26.5374 6.47095 23.3637 6.44214 20.1668 6.62076C16.4535 6.79937 13.1579 7.64058 10.4426 10.3371C7.72146 13.0393 6.88017 16.3062 6.70031 19.9937C6.52045 23.1742 6.54946 26.3258 6.54946 29.5005C6.54946 32.6752 6.52045 35.8327 6.70031 39.0074C6.88017 42.6949 7.72726 45.9675 10.4426 48.664C13.1637 51.3663 16.4535 52.2017 20.1668 52.3803C23.3695 52.5589 26.5432 52.5301 29.7401 52.5301C32.9428 52.5301 36.1165 52.5589 39.3134 52.3803C43.0267 52.2017 46.3222 51.3605 49.0376 48.664C51.7587 45.9618 52.6 42.6949 52.7799 39.0074C52.9655 35.8327 52.9307 32.681 52.9307 29.5005ZM29.7343 41.3178C23.149 41.3178 17.8344 36.0401 17.8344 29.5005C17.8344 22.961 23.149 17.6833 29.7343 17.6833C36.3196 17.6833 41.6342 22.961 41.6342 29.5005C41.6342 36.0401 36.3196 41.3178 29.7343 41.3178ZM42.1216 19.9591C40.584 19.9591 39.3424 18.7261 39.3424 17.1993C39.3424 15.6724 40.584 14.4394 42.1216 14.4394C43.6591 14.4394 44.9007 15.6724 44.9007 17.1993C44.9012 17.5618 44.8296 17.9209 44.6901 18.256C44.5506 18.591 44.3459 18.8954 44.0878 19.1518C43.8296 19.4082 43.5231 19.6114 43.1857 19.75C42.8483 19.8885 42.4867 19.9596 42.1216 19.9591Z" fill="#EEE8E8"/>
</g>
</svg>
