<svg width="59" height="55" viewBox="0 0 59 55" fill="none" xmlns="http://www.w3.org/2000/svg">
<g id="bx:bxl-facebook-square">
<path id="Vector" d="M49.1749 6.875H10.2378C9.59237 6.875 8.97339 7.11644 8.517 7.54621C8.06062 7.97598 7.80423 8.55888 7.80423 9.16667V45.8333C7.80423 46.4411 8.06062 47.024 8.517 47.4538C8.97339 47.8836 9.59237 48.125 10.2378 48.125H31.203V32.175H25.5133V25.9302H31.203V21.3469C31.203 16.0187 34.6586 13.1152 39.7205 13.1152C41.4215 13.1106 43.125 13.1931 44.8188 13.3604V18.9062H41.3266C38.5815 18.9062 38.0462 20.1392 38.0462 21.9427V25.9188H44.6095L43.7577 32.1635H38.0437V48.125H49.1749C49.8203 48.125 50.4393 47.8836 50.8957 47.4538C51.352 47.024 51.6084 46.4411 51.6084 45.8333V9.16667C51.6084 8.55888 51.352 7.97598 50.8957 7.54621C50.4393 7.11644 49.8203 6.875 49.1749 6.875Z" fill="#ECF0F1"/>
</g>
</svg>
