<svg width="40" height="40" viewBox="0 0 40 40" fill="none" xmlns="http://www.w3.org/2000/svg">
<g id="flat-color-icons:alarm-clock">
<g id="Group">
<path id="Vector" d="M32.0833 37.1667L28.75 33.8333L30.5 32.0833L33.8333 35.4167C34.3333 35.9167 34.3333 36.6667 33.8333 37.1667C33.4167 37.5833 32.5833 37.5833 32.0833 37.1667Z" fill="#37474F"/>
<path id="Vector_2" d="M7.91675 37.1667L11.2501 33.8333L9.50008 32.0833L6.16675 35.4167C5.66675 35.9167 5.66675 36.6667 6.16675 37.1667C6.58341 37.5833 7.41675 37.5833 7.91675 37.1667Z" fill="#37474F"/>
</g>
<path id="Vector_3" d="M19.9999 36.6667C29.2047 36.6667 36.6666 29.2048 36.6666 20C36.6666 10.7953 29.2047 3.33334 19.9999 3.33334C10.7952 3.33334 3.33325 10.7953 3.33325 20C3.33325 29.2048 10.7952 36.6667 19.9999 36.6667Z" fill="#C62828"/>
<path id="Vector_4" d="M20.0001 33.3333C27.3639 33.3333 33.3334 27.3638 33.3334 20C33.3334 12.6362 27.3639 6.66666 20.0001 6.66666C12.6363 6.66666 6.66675 12.6362 6.66675 20C6.66675 27.3638 12.6363 33.3333 20.0001 33.3333Z" fill="#EEEEEE"/>
<path id="Vector_5" d="M12.5798 27.9L12.1082 27.4283L19.7673 19.7692L20.239 20.24L12.5798 27.9Z" fill="#E53935"/>
<path id="Vector_6" d="M19.1667 9.16666H20.8334V20H19.1667V9.16666Z" fill="black"/>
<path id="Vector_7" d="M26.0708 24.7117L24.7166 26.0667L19.2966 20.6467L20.6516 19.2908L26.0708 24.7117Z" fill="black"/>
<path id="Vector_8" d="M19.9999 21.6667C20.9204 21.6667 21.6666 20.9205 21.6666 20C21.6666 19.0795 20.9204 18.3333 19.9999 18.3333C19.0794 18.3333 18.3333 19.0795 18.3333 20C18.3333 20.9205 19.0794 21.6667 19.9999 21.6667Z" fill="black"/>
<path id="Vector_9" d="M20.0001 20.8333C20.4603 20.8333 20.8334 20.4602 20.8334 20C20.8334 19.5398 20.4603 19.1667 20.0001 19.1667C19.5398 19.1667 19.1667 19.5398 19.1667 20C19.1667 20.4602 19.5398 20.8333 20.0001 20.8333Z" fill="#C62828"/>
<path id="Vector_10" d="M18.3333 0.833344H21.6666V3.33334H18.3333V0.833344Z" fill="#37474F"/>
<g id="Group_2">
<path id="Vector_11" d="M36.9999 13.5C39.0833 10.5834 38.7499 6.50002 36.1666 3.91669C33.5833 1.33335 29.4999 1.00002 26.5833 3.08335L36.9999 13.5Z" fill="#37474F"/>
<path id="Vector_12" d="M3.00004 13.5C0.916707 10.5834 1.25004 6.50002 3.83337 3.91669C6.41671 1.33335 10.5 1.00002 13.4167 3.08335L3.00004 13.5Z" fill="#37474F"/>
</g>
</g>
</svg>
