<svg width="94" height="107" viewBox="0 0 94 107" fill="none" xmlns="http://www.w3.org/2000/svg">
<g clip-path="url(#clip0_4_49)">
<path d="M94 100.58C94 102.283 93.4058 103.916 92.3481 105.12C91.2904 106.324 89.8558 107 88.36 107H5.64C4.14418 107 2.70962 106.324 1.65192 105.12C0.594213 103.916 0 102.283 0 100.58L0 17.12C0 15.4173 0.594213 13.7843 1.65192 12.5803C2.70962 11.3763 4.14418 10.7 5.64 10.7H88.36C89.8558 10.7 91.2904 11.3763 92.3481 12.5803C93.4058 13.7843 94 15.4173 94 17.12V100.58Z" fill="#27AE60"/>
<path fill-rule="evenodd" clip-rule="evenodd" d="M77.08 93.09C77.08 93.6576 76.8819 94.2019 76.5294 94.6032C76.1768 95.0045 75.6986 95.23 75.2 95.23H18.8C18.3014 95.23 17.8232 95.0045 17.4706 94.6032C17.1181 94.2019 16.92 93.6576 16.92 93.09V19.26C16.92 18.6924 17.1181 18.1481 17.4706 17.7468C17.8232 17.3455 18.3014 17.12 18.8 17.12H75.2C75.6986 17.12 76.1768 17.3455 76.5294 17.7468C76.8819 18.1481 77.08 18.6924 77.08 19.26V93.09Z" fill="#EEE8E8"/>
<path fill-rule="evenodd" clip-rule="evenodd" d="M67.68 21.4H26.32C25.5721 21.4 24.8548 21.0618 24.326 20.4598C23.7971 19.8578 23.5 19.0413 23.5 18.19V10.7C23.5 9.84865 23.7971 9.03218 24.326 8.43019C24.8548 7.8282 25.5721 7.49 26.32 7.49H40.42C40.42 5.50353 41.1132 3.59842 42.3472 2.19377C43.5812 0.789123 45.2549 0 47 0C48.7451 0 50.4188 0.789123 51.6528 2.19377C52.8868 3.59842 53.58 5.50353 53.58 7.49H67.68C68.4279 7.49 69.1452 7.8282 69.674 8.43019C70.2029 9.03218 70.5 9.84865 70.5 10.7V18.19C70.5 19.0413 70.2029 19.8578 69.674 20.4598C69.1452 21.0618 68.4279 21.4 67.68 21.4ZM47 4.28C46.6297 4.28 46.263 4.36303 45.9208 4.52435C45.5787 4.68566 45.2678 4.92211 45.006 5.22019C44.7441 5.51826 44.5364 5.87213 44.3947 6.26159C44.2529 6.65104 44.18 7.06846 44.18 7.49C44.18 7.91154 44.2529 8.32896 44.3947 8.71841C44.5364 9.10787 44.7441 9.46174 45.006 9.75981C45.2678 10.0579 45.5787 10.2943 45.9208 10.4557C46.263 10.617 46.6297 10.7 47 10.7C47.7479 10.7 48.4652 10.3618 48.994 9.75981C49.5229 9.15782 49.82 8.34134 49.82 7.49C49.82 6.63865 49.5229 5.82218 48.994 5.22019C48.4652 4.6182 47.7479 4.28 47 4.28Z" fill="#BDC3C7"/>
<path fill-rule="evenodd" clip-rule="evenodd" d="M67.68 21.4H26.32C25.5721 21.4 24.8548 21.0619 24.326 20.4599C23.7971 19.8579 23.5 19.0414 23.5 18.19V16.05C23.5 16.9014 23.7971 17.7179 24.326 18.3199C24.8548 18.9219 25.5721 19.26 26.32 19.26H67.68C68.4279 19.26 69.1452 18.9219 69.674 18.3199C70.2029 17.7179 70.5 16.9014 70.5 16.05V18.19C70.5 19.0414 70.2029 19.8579 69.674 20.4599C69.1452 21.0619 68.4279 21.4 67.68 21.4Z" fill="#A1A6A9"/>
<path opacity="0.15" fill-rule="evenodd" clip-rule="evenodd" d="M88.36 103.79H5.64C4.14418 103.79 2.70962 103.114 1.65192 101.91C0.594213 100.706 0 99.0728 0 97.3701L0 100.58C0 102.283 0.594213 103.916 1.65192 105.12C2.70962 106.324 4.14418 107 5.64 107H88.36C89.8558 107 91.2904 106.324 92.3481 105.12C93.4058 103.916 94 102.283 94 100.58V97.3701C94 99.0728 93.4058 100.706 92.3481 101.91C91.2904 103.114 89.8558 103.79 88.36 103.79Z" fill="black"/>
<path fill-rule="evenodd" clip-rule="evenodd" d="M38.54 43.869V47.079H67.68V43.869H38.54ZM38.54 58.8501H67.68V55.639H38.54V58.8501ZM38.54 70.6179H67.68V67.409H38.54V70.6179ZM38.54 82.389H67.68V79.179H38.54V82.389ZM26.32 49.219H32.9V41.729H26.32V49.219ZM26.32 60.989H32.9V53.499H26.32V60.989ZM26.32 72.759H32.9V65.269H26.32V72.759ZM26.32 84.5301H32.9V77.039H26.32V84.5301Z" fill="#BDC3C7"/>
<path fill-rule="evenodd" clip-rule="evenodd" d="M38.54 31.03V34.2411H67.68V31.03H38.54ZM33.7714 29.731L33.1059 28.9681C33.084 28.9432 33.0581 28.9234 33.0295 28.91C33.001 28.8965 32.9704 28.8895 32.9395 28.8895C32.9086 28.8895 32.878 28.8965 32.8494 28.91C32.8209 28.9234 32.7949 28.9432 32.7731 28.9681L29.2688 32.9303C29.2471 32.9555 29.2212 32.9755 29.1926 32.9891C29.1641 33.0028 29.1334 33.0098 29.1024 33.0098C29.0714 33.0098 29.0407 33.0028 29.0122 32.9891C28.9836 32.9755 28.9577 32.9555 28.936 32.9303L27.401 31.1541C27.3792 31.1292 27.3532 31.1094 27.3247 31.096C27.2961 31.0825 27.2655 31.0755 27.2346 31.0755C27.2037 31.0755 27.1731 31.0825 27.1446 31.096C27.116 31.1094 27.0901 31.1292 27.0682 31.1541L26.3896 31.8475C26.3677 31.872 26.3503 31.9011 26.3384 31.9332C26.3265 31.9654 26.3202 31.9998 26.32 32.0347L26.3303 32.0925H26.32V33.1604H26.3303L26.3896 33.2963L27.9377 35.142L28.2705 35.5219L28.936 36.2848C28.9578 36.3097 28.9838 36.3294 29.0123 36.3429C29.0409 36.3564 29.0715 36.3634 29.1024 36.3634C29.1333 36.3634 29.1639 36.3564 29.1925 36.3429C29.221 36.3294 29.2469 36.3097 29.2688 36.2848L33.7714 31.1798L33.8344 31.0257H33.84V29.9579H33.8344C33.8399 29.9171 33.8372 29.8754 33.8262 29.836C33.8153 29.7967 33.7965 29.7607 33.7714 29.731Z" fill="#27AE60"/>
<path fill-rule="evenodd" clip-rule="evenodd" d="M47 4.27997C47.5815 4.28115 48.1483 4.48761 48.6224 4.87089C49.0965 5.25417 49.4545 5.79539 49.647 6.41997C49.7523 6.08506 49.82 5.72875 49.82 5.35104C49.82 4.49955 49.5228 3.68294 48.9939 3.08085C48.465 2.47875 47.7476 2.1405 46.9995 2.1405C46.2515 2.1405 45.5341 2.47875 45.0052 3.08085C44.4762 3.68294 44.1791 4.49955 44.1791 5.35104C44.1791 5.72875 44.2467 6.08506 44.352 6.42104C44.5446 5.79618 44.9027 5.25469 45.3769 4.87121C45.8512 4.48774 46.4183 4.28117 47 4.27997Z" fill="#A1A6A9"/>
</g>
<defs>
<clipPath id="clip0_4_49">
<rect width="94" height="107" fill="white"/>
</clipPath>
</defs>
</svg>
