<svg width="20" height="19" viewBox="0 0 20 19" fill="none" xmlns="http://www.w3.org/2000/svg">
<path id="Vector" d="M9.71863 8.52358L16.3593 0.496174C16.8182 -0.0586613 17.5604 -0.0586613 18.0145 0.496174L19.118 1.83014C19.577 2.38498 19.577 3.28216 19.118 3.83109L14.4159 9.52701L19.1229 15.217C19.5819 15.7719 19.5819 16.669 19.1229 17.218L18.0194 18.5578C17.5604 19.1127 16.8182 19.1127 16.3641 18.5578L9.72351 10.5304C9.25965 9.9756 9.25965 9.07842 9.71863 8.52358ZM0.34363 10.5304L6.98425 18.5578C7.44324 19.1127 8.18543 19.1127 8.63953 18.5578L9.74304 17.2239C10.202 16.669 10.202 15.7719 9.74304 15.2229L5.0409 9.52701L9.74793 3.83699C10.2069 3.28216 10.2069 2.38498 9.74793 1.83604L8.64441 0.496174C8.18543 -0.0586613 7.44324 -0.0586613 6.98914 0.496174L0.348513 8.52358C-0.115354 9.07842 -0.115354 9.9756 0.34363 10.5304Z" fill="#A1A6A9"/>
</svg>
