<svg width="40" height="40" viewBox="0 0 40 40" fill="none" xmlns="http://www.w3.org/2000/svg">
<g id="uim:calender">
<path id="Vector" opacity="0.5" d="M36.6667 16.6667H3.33337V31.6667C3.33337 32.9928 3.86016 34.2645 4.79784 35.2022C5.73552 36.1399 7.00729 36.6667 8.33337 36.6667H31.6667C32.9928 36.6667 34.2646 36.1399 35.2022 35.2022C36.1399 34.2645 36.6667 32.9928 36.6667 31.6667V16.6667ZM11.6667 13.3333C11.2247 13.3333 10.8008 13.1577 10.4882 12.8452C10.1756 12.5326 10 12.1087 10 11.6667V5.00001C10 4.55798 10.1756 4.13406 10.4882 3.8215C10.8008 3.50894 11.2247 3.33334 11.6667 3.33334C12.1087 3.33334 12.5327 3.50894 12.8452 3.8215C13.1578 4.13406 13.3334 4.55798 13.3334 5.00001V11.6667C13.3334 12.1087 13.1578 12.5326 12.8452 12.8452C12.5327 13.1577 12.1087 13.3333 11.6667 13.3333ZM28.3334 13.3333C27.8914 13.3333 27.4674 13.1577 27.1549 12.8452C26.8423 12.5326 26.6667 12.1087 26.6667 11.6667V5.00001C26.6667 4.55798 26.8423 4.13406 27.1549 3.8215C27.4674 3.50894 27.8914 3.33334 28.3334 3.33334C28.7754 3.33334 29.1993 3.50894 29.5119 3.8215C29.8245 4.13406 30 4.55798 30 5.00001V11.6667C30 12.1087 29.8245 12.5326 29.5119 12.8452C29.1993 13.1577 28.7754 13.3333 28.3334 13.3333Z" fill="black"/>
<path id="Vector_2" d="M31.6667 6.66666H30V11.6667C30 12.1087 29.8245 12.5326 29.5119 12.8452C29.1993 13.1577 28.7754 13.3333 28.3334 13.3333C27.8914 13.3333 27.4674 13.1577 27.1549 12.8452C26.8423 12.5326 26.6667 12.1087 26.6667 11.6667V6.66666H13.3334V11.6667C13.3334 12.1087 13.1578 12.5326 12.8452 12.8452C12.5327 13.1577 12.1087 13.3333 11.6667 13.3333C11.2247 13.3333 10.8008 13.1577 10.4882 12.8452C10.1756 12.5326 10 12.1087 10 11.6667V6.66666H8.33337C7.00729 6.66666 5.73552 7.19344 4.79784 8.13112C3.86016 9.0688 3.33337 10.3406 3.33337 11.6667V16.6667H36.6667V11.6667C36.6667 10.3406 36.1399 9.0688 35.2022 8.13112C34.2646 7.19344 32.9928 6.66666 31.6667 6.66666Z" fill="black"/>
</g>
</svg>
